<svg xmlns="http://www.w3.org/2000/svg" viewBox="0 0 200 200" role="img" aria-label="Corpass">
  <!-- Compass star — light (left) halves -->
  <g fill="#2E7FD4">
    <polygon points="100,100 92.3,81.5 100,5" />
    <polygon points="100,100 107.7,81.5 143.8,56.2" />
    <polygon points="100,100 118.5,92.3 195,100" />
    <polygon points="100,100 118.5,107.7 143.8,143.8" />
    <polygon points="100,100 107.7,118.5 100,195" />
    <polygon points="100,100 92.3,118.5 56.2,143.8" />
    <polygon points="100,100 81.5,107.7 5,100" />
    <polygon points="100,100 81.5,92.3 56.2,56.2" />
  </g>
  <!-- Compass star — dark (right) halves -->
  <g fill="#163F82">
    <polygon points="100,100 100,5 107.7,81.5" />
    <polygon points="100,100 143.8,56.2 118.5,92.3" />
    <polygon points="100,100 195,100 118.5,107.7" />
    <polygon points="100,100 143.8,143.8 107.7,118.5" />
    <polygon points="100,100 100,195 92.3,118.5" />
    <polygon points="100,100 56.2,143.8 81.5,107.7" />
    <polygon points="100,100 5,100 81.5,92.3" />
    <polygon points="100,100 56.2,56.2 92.3,81.5" />
  </g>
  <!-- Inner disc + gray ring -->
  <circle cx="100" cy="100" r="49" fill="#ffffff" />
  <circle cx="100" cy="100" r="49" fill="none" stroke="#868D96" stroke-width="3" />
  <circle cx="100" cy="100" r="43" fill="none" stroke="#B9BEC6" stroke-width="1" />
  <!-- Navigation arrow — light (left) and dark (right) halves -->
  <polygon points="100,66 76,126 100,112" fill="#5B9BD5" />
  <polygon points="100,66 124,126 100,112" fill="#1B4F9C" />
</svg>
